# xmcd CD database file
#
# Track frame offsets:
#	182
#	32597
#	64972
#	86897
#	118627
#	147847
#	169285
#	196887
#	218187
#
# Disc length: 3339 seconds
#
# Revision: 3
# Processed by: cddbd v1.5.1PL0 Copyright (c) Steve Scherf et al.
# Submitted via: CDex 1.51
#
DISCID=840d0909
DTITLE=Max De Aloe - La Danza di Matisse
DYEAR=1999
DGENRE=Jazz
TTITLE0=La danza di Matisse
TTITLE1=How deep is the ocean
TTITLE2=Almost night
TTITLE3=Whisper not
TTITLE4=Yours is my heart alone
TTITLE5=Waltz for Ruth
TTITLE6=Sail away
TTITLE7=Camel's blues
TTITLE8=Le portes de Beaulieu
EXTD=YEAR: 1999
EXTT0=
EXTT1=
EXTT2=
EXTT3=
EXTT4=
EXTT5=
EXTT6=
EXTT7=
EXTT8=
PLAYORDER=
